<svg width="50" height="50" viewBox="0 0 50 50" fill="none" xmlns="http://www.w3.org/2000/svg">
<mask id="mask0_5_66" style="mask-type:alpha" maskUnits="userSpaceOnUse" x="0" y="0" width="50" height="50">
<rect width="34.9429" height="34.9429" transform="matrix(0.706864 0.70735 -0.706864 0.70735 24.6999 0)" fill="#D9D9D9"/>
</mask>
<g mask="url(#mask0_5_66)">
<path d="M32.5215 25.1288L14.2024 25.1288C13.8251 25.1288 13.4906 24.9829 13.199 24.6911C12.9074 24.3993 12.7616 24.0646 12.7616 23.6869C12.7616 23.3093 12.9074 22.9746 13.199 22.6828C13.4906 22.391 13.8251 22.2451 14.2024 22.2451L32.5215 22.2451L24.6999 14.4181C24.4083 14.1263 24.2625 13.783 24.2625 13.3882C24.2625 12.9935 24.4083 12.6502 24.6999 12.3584C24.9915 12.0666 25.3345 11.9207 25.729 11.9207C26.1235 11.9207 26.4666 12.0666 26.7582 12.3584L37.0498 22.6571C37.3414 22.9489 37.4872 23.2922 37.4872 23.6869C37.4872 24.0817 37.3414 24.425 37.0498 24.7168L26.7582 35.0155C26.4666 35.3073 26.1235 35.4532 25.729 35.4532C25.3345 35.4532 24.9915 35.3073 24.6999 35.0155C24.4083 34.7237 24.2625 34.3804 24.2625 33.9856C24.2625 33.5909 24.4083 33.2476 24.6999 32.9558L32.5215 25.1288Z" fill="white"/>
</g>
</svg>
