<svg width="81" height="81" viewBox="0 0 81 81" fill="none" xmlns="http://www.w3.org/2000/svg">
<rect x="1" y="1" width="79" height="79" rx="10" stroke="url(#paint0_linear_59_355)" stroke-width="2"/>
<mask id="mask0_59_355" style="mask-type:alpha" maskUnits="userSpaceOnUse" x="18" y="18" width="46" height="46">
<rect x="18" y="18" width="46" height="46" fill="#D9D9D9"/>
</mask>
<g mask="url(#mask0_59_355)">
<path d="M54.9916 35.0585L61.125 41.1918L58.4417 43.8752L52.3083 37.7418C51.6375 38.1252 50.9187 38.4446 50.1521 38.7002C49.3854 38.9557 48.5708 39.0835 47.7083 39.0835C45.3125 39.0835 43.276 38.245 41.5989 36.5679C39.9219 34.8908 39.0833 32.8543 39.0833 30.4585C39.0833 28.0627 39.9219 26.0262 41.5989 24.3491C43.276 22.672 45.3125 21.8335 47.7083 21.8335C50.1041 21.8335 52.1406 22.672 53.8177 24.3491C55.4948 26.0262 56.3333 28.0627 56.3333 30.4585C56.3333 31.321 56.2055 32.1356 55.95 32.9022C55.6944 33.6689 55.375 34.3877 54.9916 35.0585ZM47.7083 35.2502C49.05 35.2502 50.184 34.787 51.1104 33.8606C52.0368 32.9342 52.5 31.8002 52.5 30.4585C52.5 29.1168 52.0368 27.9828 51.1104 27.0564C50.184 26.13 49.05 25.6668 47.7083 25.6668C46.3666 25.6668 45.2326 26.13 44.3062 27.0564C43.3798 27.9828 42.9166 29.1168 42.9166 30.4585C42.9166 31.8002 43.3798 32.9342 44.3062 33.8606C45.2326 34.787 46.3666 35.2502 47.7083 35.2502ZM25.6666 60.1668C24.6125 60.1668 23.71 59.7915 22.9594 59.0408C22.2087 58.2901 21.8333 57.3877 21.8333 56.3335V29.5002C21.8333 28.446 22.2087 27.5436 22.9594 26.7929C23.71 26.0422 24.6125 25.6668 25.6666 25.6668H36.2083C35.8569 26.4654 35.6173 27.288 35.4896 28.1345C35.3618 28.9811 35.2979 29.8196 35.2979 30.6502C35.2979 34.1321 36.5278 37.0391 38.9875 39.371C41.4472 41.7029 44.3701 42.8689 47.7562 42.8689C48.3632 42.8689 48.9701 42.829 49.5771 42.7491C50.184 42.6693 50.8069 42.5335 51.4458 42.3418L56.3333 47.2293V56.3335C56.3333 57.3877 55.958 58.2901 55.2073 59.0408C54.4566 59.7915 53.5541 60.1668 52.5 60.1668H25.6666Z" fill="url(#paint1_linear_59_355)"/>
</g>
<defs>
<linearGradient id="paint0_linear_59_355" x1="81" y1="71.205" x2="-3.24214e-09" y2="71.205" gradientUnits="userSpaceOnUse">
<stop stop-color="#F0B71F"/>
<stop offset="1" stop-color="#E03609"/>
</linearGradient>
<linearGradient id="paint1_linear_59_355" x1="61.125" y1="55.5313" x2="21.8333" y2="55.5313" gradientUnits="userSpaceOnUse">
<stop stop-color="#F0B71F"/>
<stop offset="1" stop-color="#E03609"/>
</linearGradient>
</defs>
</svg>
